<svg width="34" height="24" viewBox="0 0 34 24" fill="none" xmlns="http://www.w3.org/2000/svg">
<g clip-path="url(#clip0_1_21)">
<path d="M33.627 1.89258L29.1622 23.25H5.67774L1.23047 1.89258L2.17968 1.69922L2.9004 5.19726C3.48632 5.23242 3.95508 5.32618 4.30664 5.47852C4.6582 5.63086 4.99218 5.7832 5.3086 5.93554C5.5664 6.0879 5.84766 6.22852 6.15234 6.35742C6.45704 6.4746 6.85546 6.5332 7.34766 6.5332C7.83984 6.5332 8.25 6.46876 8.57812 6.33984C8.91796 6.21094 9.2461 6.07032 9.5625 5.91796C9.92578 5.73046 10.3184 5.56054 10.7402 5.4082C11.1738 5.24414 11.7246 5.1621 12.3926 5.1621C13.084 5.1621 13.6348 5.24414 14.0449 5.4082C14.4551 5.56054 14.8359 5.7246 15.1875 5.9004C15.4688 6.05274 15.7734 6.1875 16.1016 6.30468C16.3945 6.42188 16.7695 6.48046 17.2266 6.48046H17.3672C17.8828 6.48046 18.3047 6.42188 18.6328 6.30468C18.9609 6.17578 19.2773 6.04102 19.582 5.9004C19.9336 5.7246 20.3204 5.56054 20.7422 5.4082C21.1758 5.25586 21.75 5.17968 22.4648 5.17968C23.168 5.1914 23.7188 5.2793 24.1172 5.44336C24.5274 5.5957 24.9082 5.75976 25.2598 5.93554C25.5176 6.0879 25.793 6.22852 26.086 6.35742C26.3906 6.4746 26.789 6.5332 27.2812 6.5332C27.7734 6.5332 28.1894 6.46876 28.5292 6.33984C28.8692 6.21094 29.1972 6.07032 29.5136 5.91796C29.8418 5.7539 30.1876 5.60156 30.5508 5.46094C30.9258 5.3086 31.3886 5.21484 31.9394 5.17968L32.6778 1.69922L33.627 1.89258ZM3.11132 6.19922L6.48632 22.2656H28.371L31.746 6.18164C31.3594 6.22852 31.0254 6.31054 30.7442 6.42774C30.4628 6.54492 30.1992 6.66796 29.9532 6.79688C29.5898 6.98438 29.209 7.14844 28.8106 7.28906C28.4356 7.42968 27.9726 7.5 27.4218 7.5H27.2812C26.6602 7.5 26.168 7.42968 25.8046 7.28906C25.4414 7.13672 25.1016 6.97266 24.7852 6.79688C24.504 6.65624 24.1934 6.51562 23.8536 6.375C23.5136 6.23438 23.0508 6.16406 22.4648 6.16406C21.8672 6.16406 21.3868 6.22852 21.0234 6.35742C20.6602 6.48632 20.3204 6.62696 20.004 6.7793C19.6523 6.95508 19.2832 7.11328 18.8965 7.2539C18.5098 7.39454 18 7.46484 17.3672 7.46484H17.2266C16.6523 7.46484 16.1836 7.39454 15.8203 7.2539C15.4336 7.10156 15.0703 6.9375 14.7305 6.76172C14.4375 6.6211 14.1152 6.48632 13.7637 6.35742C13.4121 6.2168 12.9551 6.14648 12.3926 6.14648C11.8301 6.14648 11.3672 6.2168 11.0039 6.35742C10.6523 6.49804 10.3242 6.64454 10.0195 6.79688C9.64454 6.98438 9.25782 7.14844 8.85938 7.28906C8.4961 7.42968 8.0332 7.5 7.4707 7.5H7.33008C6.70898 7.5 6.2168 7.42968 5.85352 7.28906C5.49024 7.13672 5.1504 6.97266 4.83398 6.79688C4.5996 6.67968 4.34766 6.5625 4.07812 6.44532C3.82032 6.32812 3.49804 6.2461 3.11132 6.19922Z" fill="#121314"/>
</g>
<defs>
<clipPath id="clip0_1_21">
<rect width="34" height="24" fill="white"/>
</clipPath>
</defs>
</svg>
