<svg width="34" height="24" viewBox="0 0 34 24" fill="none" xmlns="http://www.w3.org/2000/svg">
<g clip-path="url(#clip0_1_68)">
<path d="M18.6152 12L18.3164 12.2109L32.5372 22.125L30.4102 12H18.6152ZM16.2598 12C14.6426 12 12.9727 12.0469 11.25 12.1406C9.52734 12.2344 7.96876 12.6328 6.57422 13.3359C5.34376 13.9922 4.31836 15.0117 3.49804 16.3945C2.68946 17.7773 2.26172 19.7344 2.21484 22.2656H2.37304L2.3379 22.2128L16.5938 12.2285L16.2598 12ZM3.95508 22.2656H30.92L17.4375 12.8262L3.95508 22.2656ZM32.5546 2.24414L29.7774 4.17774L33.7676 23.25H1.23047V22.7578C1.23047 19.8398 1.6875 17.584 2.60156 15.9902C3.51562 14.3965 4.69336 13.2246 6.13476 12.4746C7.4121 11.8066 8.8125 11.4023 10.3359 11.2617C11.8711 11.1094 13.3828 11.0332 14.8711 11.0332L2.3379 2.24414L2.88282 1.45312L16.6289 11.0332H18.2988L28.6876 3.75586L28.3886 2.2793H6.0996V1.3125H29.1796L29.5664 3.14062L31.9922 1.45312L32.5546 2.24414ZM28.916 4.79296L20.0214 11.0332L30.2168 11.0156L28.916 4.79296Z" fill="#121314"/>
</g>
<defs>
<clipPath id="clip0_1_68">
<rect width="34" height="24" fill="white"/>
</clipPath>
</defs>
</svg>
