<svg width="28" height="24" viewBox="0 0 28 24" fill="none" xmlns="http://www.w3.org/2000/svg">
<g clip-path="url(#clip0_1_31)">
<path d="M7.62187 7.94532C7.62187 7.94532 7.62656 7.94063 7.63594 7.93125L7.62187 7.94532ZM13.0922 12.3609C13.0922 12.3609 13.0875 12.3656 13.0781 12.375L13.0641 12.3891C13.0922 12.3891 13.1063 12.3844 13.1063 12.375C13.1063 12.375 13.1016 12.3703 13.0922 12.3609ZM15.3141 14.0203C15.3141 14.0203 15.3094 14.0203 15.3 14.0203C15.2719 14.0203 15.2203 14.0484 15.1453 14.1047C15.2672 14.0859 15.3281 14.0625 15.3281 14.0344C15.3281 14.0344 15.3234 14.0297 15.3141 14.0203ZM18.0422 14.1047C18.0328 14.0953 18.0234 14.0906 18.0141 14.0906C17.9954 14.0906 17.9859 14.1094 17.9859 14.1469C17.9859 14.175 17.9906 14.2031 18 14.2313C18.0282 14.1656 18.0422 14.1234 18.0422 14.1047ZM12.1078 10.3641C11.9297 10.5422 11.8078 10.6688 11.7422 10.7437C11.2359 11.2594 10.5234 11.9578 9.60469 12.8391C8.81718 13.5984 8.04843 14.3437 7.29843 15.075C6.55781 15.8063 6.15 16.2563 6.07501 16.425C6.0375 16.5 6.01875 16.5797 6.01875 16.664C6.01875 16.7109 6.02813 16.7626 6.04688 16.8187C6.07501 16.9032 6.10781 16.9547 6.14531 16.9734C6.17344 17.0298 6.21094 17.0626 6.25781 17.0718C6.30469 17.0906 6.35157 17.1 6.39843 17.1C6.45469 17.1 6.51563 17.0906 6.58125 17.0718C6.72187 17.0344 6.93282 16.8843 7.21407 16.6219C7.50469 16.3594 7.83282 16.0499 8.19843 15.6937C8.40469 15.4969 8.61563 15.2953 8.83125 15.0891C9.05626 14.8734 9.28125 14.6672 9.50626 14.4703C9.54375 14.4422 9.58125 14.4141 9.61875 14.3859C9.66563 14.3484 9.76406 14.2594 9.91407 14.1188C10.5797 13.5281 11.2922 12.9375 12.0516 12.3469C12.6328 11.8875 13.0641 11.6578 13.3453 11.6578C13.4297 11.6578 13.5 11.6766 13.5563 11.7141C13.7063 11.8359 13.7812 11.9859 13.7812 12.1641C13.7812 12.3516 13.6875 12.5813 13.5 12.8531C13.3594 13.0594 13.1391 13.3313 12.8391 13.6688L12.7125 13.8094C12.5063 14.0344 12.15 14.4234 11.6437 14.9766C11.1375 15.5297 10.6172 16.1062 10.0828 16.7062C9.55781 17.2968 9.08437 17.8406 8.6625 18.3374C8.25 18.8344 8.02968 19.1344 8.00157 19.2374C7.99219 19.2656 7.9875 19.2984 7.9875 19.336C7.9875 19.364 7.99219 19.3968 8.00157 19.4344C8.01094 19.5 8.04375 19.5656 8.1 19.6312C8.15626 19.6875 8.22656 19.7298 8.31095 19.7578C8.35781 19.7766 8.40938 19.7859 8.46563 19.7859C8.52187 19.7859 8.57813 19.7766 8.63437 19.7578C8.79375 19.7298 9.14062 19.4298 9.67501 18.8578C10.2094 18.2766 10.7953 17.6298 11.4328 16.9171C12.2953 15.9422 13.1391 15.0469 13.9641 14.2313C14.6016 13.6031 15.1031 13.2891 15.4688 13.2891C15.5719 13.2891 15.6609 13.3125 15.7359 13.3594C15.8578 13.4344 15.9188 13.5516 15.9188 13.7109C15.9188 13.9453 15.7828 14.2688 15.5109 14.6813C15.2672 15.0656 14.9391 15.5391 14.5266 16.1016C14.1234 16.6547 13.7109 17.2125 13.2891 17.775C12.8672 18.3282 12.4828 18.839 12.1359 19.3078C11.7984 19.7672 11.5828 20.0906 11.4891 20.2781C11.4609 20.3157 11.4469 20.3531 11.4469 20.3906C11.4469 20.4187 11.4563 20.4469 11.475 20.475C11.4844 20.5501 11.5312 20.6157 11.6156 20.6718C11.6812 20.7282 11.7656 20.7702 11.8688 20.7984C11.9063 20.8078 11.9484 20.8125 11.9953 20.8125C12.0891 20.8125 12.1828 20.7797 12.2766 20.7141C12.5953 20.4984 13.0547 19.9829 13.6547 19.1672C14.2641 18.3422 14.8781 17.4938 15.4969 16.6219C15.8344 16.1437 16.1578 15.6937 16.4672 15.2719C16.7766 14.8406 17.0485 14.4797 17.2829 14.1891C17.6859 13.6734 18.0234 13.4156 18.2954 13.4156C18.3797 13.4156 18.4594 13.4437 18.5344 13.5C18.6187 13.575 18.661 13.6922 18.661 13.8516C18.661 14.1609 18.5298 14.6203 18.2672 15.2297C17.864 16.1954 17.4469 17.1328 17.0157 18.0422V18.0563C16.7531 18.5906 16.575 18.961 16.4813 19.1672C16.4531 19.2328 16.439 19.2891 16.439 19.336C16.439 19.364 16.4437 19.3922 16.4531 19.4203C16.4626 19.4954 16.4906 19.5563 16.5374 19.6032C16.5843 19.6406 16.636 19.664 16.6922 19.6734C16.7109 19.6829 16.7344 19.6875 16.7626 19.6875C16.8187 19.6875 16.8891 19.6688 16.9734 19.6312C17.1422 19.5563 17.4374 19.0781 17.8594 18.1968C18.2906 17.3157 18.7312 16.3922 19.1813 15.4266C19.4813 14.7797 19.7626 14.1797 20.025 13.6266C20.2968 13.0641 20.5266 12.6469 20.7141 12.375L20.8829 12.1219C21.1266 11.7563 21.4078 11.3156 21.7266 10.8C21.2859 10.7906 20.9298 10.7297 20.6578 10.6172C20.3672 10.5047 20.0954 10.3781 19.8422 10.2375C19.6171 10.125 19.364 10.0125 19.0829 9.9C18.8109 9.78751 18.4406 9.72656 17.9718 9.71719C17.4938 9.71719 17.1094 9.77345 16.8187 9.88594C16.5374 9.98906 16.2702 10.0969 16.0171 10.2094C15.7359 10.35 15.4359 10.4813 15.1172 10.6031C14.8078 10.7156 14.4047 10.7719 13.9078 10.7719C13.3922 10.7719 12.9797 10.7109 12.6703 10.5891C12.4734 10.5234 12.2859 10.4484 12.1078 10.3641ZM9.95626 8.92968C10.5 8.92968 10.9312 8.99063 11.25 9.1125C11.5031 9.21564 11.7375 9.31876 11.9531 9.42188C12.1781 9.19689 12.3984 8.95781 12.6141 8.70469C12.8953 8.38594 13.0359 8.12813 13.0359 7.93125C13.0359 7.89375 13.0312 7.86095 13.0219 7.83282V7.84689C13.0219 7.88437 12.9984 7.90781 12.9516 7.91719C12.8766 7.94532 12.7922 7.97813 12.6984 8.01564C12.6141 8.05312 12.5156 8.09063 12.4031 8.12813C12.1969 8.2125 11.9625 8.31095 11.7 8.42344C11.4375 8.52656 11.1422 8.625 10.8141 8.71876C10.5234 8.8125 10.2375 8.88282 9.95626 8.92968ZM25.5656 8.94375L26.1563 6.14532L26.9157 6.31407L23.4141 23.0906L23.3437 23.4H4.55626L4.5 23.0906L0.984375 6.31407L1.74374 6.14532L2.33437 8.95781C2.75626 8.98594 3.09843 9.04689 3.36094 9.14063C3.67968 9.27188 3.97501 9.40781 4.24688 9.54844C4.4625 9.67033 4.6875 9.78282 4.92187 9.88594C5.16563 9.97968 5.48437 10.0266 5.87813 10.0266C6.27187 10.0266 6.60469 9.97501 6.87656 9.87188C7.14843 9.76876 7.41094 9.65626 7.66406 9.53437C7.95469 9.38437 8.27344 9.24375 8.62032 9.1125C8.71407 9.08437 8.81718 9.05626 8.92968 9.02813C8.48906 9.02813 8.08125 8.9625 7.70626 8.83125C7.44375 8.74688 7.2375 8.63437 7.0875 8.49375C6.92813 8.33437 6.84843 8.15626 6.84843 7.95938C6.84843 7.90312 6.85312 7.84689 6.8625 7.79063C6.9 7.54689 7.08282 7.3125 7.41095 7.08751C7.53282 7.00312 7.9875 6.81095 8.77501 6.51095C9.42187 6.27657 10.2 5.97656 11.1094 5.61095C12.0188 5.24532 12.8672 4.80938 13.6547 4.30313C14.7797 3.60001 16.0125 3.01407 17.3531 2.54532C18.6938 2.07657 19.5094 1.80001 19.8 1.71564L21.3469 0.365631L21.8531 0.956255L20.236 2.3625L20.0954 2.43282C20.0859 2.4422 19.3734 2.68125 17.9578 3.15001C16.5515 3.61876 15.2578 4.22345 14.0766 4.96407C13.2422 5.48906 12.3609 5.94375 11.4328 6.32813C10.5047 6.70312 9.7125 7.00781 9.05626 7.2422C8.32499 7.52345 7.92187 7.68282 7.84688 7.72032C7.70626 7.82344 7.63125 7.89844 7.62187 7.94532L7.63594 7.93125C7.69219 7.99688 7.79531 8.04844 7.94531 8.08594C8.24531 8.17968 8.57344 8.22656 8.92968 8.22656C9.42656 8.22656 9.97968 8.13751 10.5891 7.95938C10.9078 7.86564 11.1891 7.77188 11.4328 7.67813C11.6859 7.58437 11.9109 7.49532 12.1078 7.41095C12.3797 7.29844 12.5859 7.21876 12.7266 7.17188C12.8766 7.125 13.0078 7.10157 13.1203 7.10157C13.4484 7.10157 13.6641 7.26564 13.7672 7.59375C13.7953 7.70626 13.8094 7.81876 13.8094 7.93125C13.8094 8.26876 13.6641 8.61564 13.3734 8.97188C13.1391 9.25313 12.9094 9.51564 12.6844 9.75938C12.75 9.78751 12.8156 9.81564 12.8812 9.84375C13.1156 9.93751 13.4156 9.98437 13.7812 9.98437H13.8937C14.3063 9.98437 14.6437 9.93751 14.9063 9.84375C15.1781 9.74063 15.4312 9.62813 15.6656 9.50626C15.9563 9.36564 16.2702 9.23906 16.6078 9.12656C16.9547 9.00469 17.4141 8.94375 17.9859 8.94375C18.5485 8.95312 18.9891 9.02345 19.3078 9.15469C19.636 9.27656 19.936 9.40781 20.2078 9.54844C20.4234 9.67033 20.6485 9.78282 20.8829 9.88594C21.1266 9.97968 21.4453 10.0266 21.839 10.0266C21.9702 10.0266 22.0922 10.0219 22.2046 10.0125C22.3078 9.84375 22.4157 9.67033 22.5282 9.4922C23.1938 8.39532 23.9578 6.90469 24.8203 5.02033L24.8766 4.92188C25.0078 4.7625 25.139 4.6125 25.2702 4.47188C25.4203 4.28437 25.5469 4.13437 25.6499 4.02188L26.2547 4.52813C26.2078 4.58437 26.1469 4.65469 26.0718 4.73906C26.0062 4.81407 25.936 4.89375 25.861 4.97813C25.6922 5.18437 25.575 5.32032 25.5094 5.38594C24.7032 7.14844 23.9766 8.57345 23.3298 9.66095C23.4328 9.62345 23.5312 9.58125 23.625 9.53437C23.9157 9.38437 24.2344 9.24375 24.5813 9.1125C24.8531 9.01876 25.1813 8.9625 25.5656 8.94375ZM2.50312 9.74532L5.18906 22.6125H22.7109L25.4109 9.73125C25.1672 9.75938 24.961 9.80626 24.7922 9.87188C24.5016 9.98437 24.2298 10.1016 23.9766 10.2234C23.6859 10.3734 23.3813 10.5094 23.0626 10.6313C22.9501 10.6781 22.8234 10.7109 22.6829 10.7297C22.2328 11.4703 21.8485 12.0797 21.5298 12.5578L21.361 12.7969C21.1922 13.05 20.9766 13.4484 20.7141 13.9922C20.461 14.5266 20.1891 15.1125 19.8984 15.75C19.4203 16.7813 18.9422 17.7702 18.464 18.7171C17.9859 19.664 17.5968 20.2078 17.2968 20.3485C17.1094 20.4234 16.9312 20.461 16.7626 20.461C16.6875 20.461 16.6171 20.4563 16.5515 20.4469C16.3078 20.4094 16.1157 20.3062 15.975 20.1374C15.8156 19.9781 15.7172 19.7859 15.6797 19.561C15.6703 19.4859 15.6656 19.4157 15.6656 19.3501C15.6656 19.1813 15.7031 19.0125 15.7781 18.8437C15.9656 18.4219 16.1437 18.0422 16.3125 17.7046C16.5187 17.2547 16.739 16.7906 16.9734 16.3125C17.2171 15.8344 17.4282 15.4125 17.6062 15.0469C17.4 15.3188 17.1702 15.6328 16.9171 15.9891C16.664 16.336 16.4062 16.6968 16.1437 17.0718C15.5063 17.9718 14.8688 18.8485 14.2312 19.7016C13.5937 20.5547 13.0922 21.1078 12.7266 21.361C12.4922 21.5203 12.2391 21.6 11.9672 21.6C11.8828 21.6 11.7937 21.5906 11.7 21.5718C11.475 21.5157 11.2781 21.4171 11.1094 21.2766C10.9219 21.1078 10.7953 20.9298 10.7297 20.7422C10.6828 20.6298 10.6594 20.5125 10.6594 20.3906C10.6594 20.2312 10.7016 20.0718 10.7859 19.9125C10.8984 19.6968 11.1328 19.3501 11.4891 18.8718C11.8453 18.3938 12.2391 17.8688 12.6703 17.2968C13.0359 16.8187 13.3969 16.3312 13.7531 15.8344C14.1188 15.3375 14.4281 14.9016 14.6812 14.5266C14.3625 14.8453 13.9594 15.2719 13.4719 15.8063C12.9937 16.3406 12.5109 16.8843 12.0234 17.4374C11.3391 18.1968 10.7016 18.8859 10.1109 19.5046C9.52032 20.1234 9.08437 20.461 8.80312 20.5171C8.67187 20.5453 8.55 20.5594 8.4375 20.5594C8.31563 20.5594 8.20312 20.5453 8.1 20.5171C7.87501 20.4515 7.68282 20.3344 7.52344 20.1656C7.37344 19.9968 7.27968 19.8094 7.24219 19.6032C7.21407 19.5187 7.2 19.4344 7.2 19.3501C7.2 19.2469 7.21875 19.139 7.25626 19.0266C7.29375 18.8766 7.52813 18.539 7.95938 18.0141C8.4 17.4797 8.89219 16.9032 9.43594 16.2843C9.98906 15.6563 10.5234 15.0563 11.0391 14.4844C11.5547 13.9125 11.9156 13.5094 12.1219 13.275L12.2484 13.1344C12.2766 13.1063 12.3047 13.0781 12.3328 13.05C12.3609 13.0125 12.3891 12.9797 12.4172 12.9516C12.1453 13.1953 11.8266 13.4766 11.4609 13.7953C11.1047 14.1141 10.7625 14.4188 10.4344 14.7094L10.0266 15.0609C9.61407 15.4359 9.1875 15.8344 8.74688 16.2563C8.35312 16.6499 7.9875 16.9968 7.65 17.2968C7.3125 17.5875 7.03125 17.7656 6.80626 17.8312C6.66563 17.8781 6.52968 17.9016 6.39843 17.9016C6.23906 17.9016 6.09375 17.8688 5.9625 17.8032C5.80312 17.7469 5.6625 17.6437 5.54062 17.4938C5.41875 17.3626 5.33906 17.2125 5.30157 17.0437C5.26406 16.9219 5.24531 16.8 5.24531 16.6781C5.24531 16.5 5.28282 16.3171 5.35781 16.1298C5.45157 15.8859 5.8875 15.3797 6.66563 14.6109C7.44374 13.8422 8.24062 13.0641 9.05626 12.2766C9.97501 11.3953 10.6781 10.7063 11.1656 10.2094C11.2125 10.1531 11.2734 10.0875 11.3484 10.0125C11.2453 9.96564 11.1375 9.91876 11.025 9.87188C10.7437 9.75938 10.3781 9.70312 9.92813 9.70312C9.47813 9.70312 9.10781 9.75938 8.81718 9.87188C8.53594 9.98437 8.26875 10.1016 8.01563 10.2234C7.72499 10.3734 7.42032 10.5094 7.10157 10.6313C6.79219 10.7437 6.41718 10.8 5.97656 10.8H5.87813C5.38125 10.8 4.9875 10.7437 4.69688 10.6313C4.40626 10.5094 4.13437 10.3781 3.88125 10.2375C3.65626 10.125 3.40781 10.0125 3.13594 9.9C2.95781 9.83437 2.74688 9.78282 2.50312 9.74532Z" fill="#121314"/>
</g>
<defs>
<clipPath id="clip0_1_31">
<rect width="27.2" height="24" fill="white"/>
</clipPath>
</defs>
</svg>
