<svg width="34" height="24" viewBox="0 0 34 24" fill="none" xmlns="http://www.w3.org/2000/svg">
<g clip-path="url(#clip0_1_63)">
<path d="M30.4278 12H15.7148C14.168 12 12.5801 12.0586 10.9512 12.1758C9.33398 12.2812 7.875 12.668 6.57422 13.3359C5.34376 13.9922 4.31836 15.0117 3.49804 16.3945C2.68946 17.7773 2.26172 19.7344 2.21484 22.2656H32.5722L30.4278 12ZM17.5078 15.4277C18.6328 15.4277 19.1953 15.9961 19.1953 17.1328C19.1953 18.2578 18.6328 18.8203 17.5078 18.8203C16.3711 18.8203 15.8027 18.2578 15.8027 17.1328C15.8027 15.9961 16.3711 15.4277 17.5078 15.4277ZM15.7148 11.0332L30.2168 11.0156L28.3886 2.2793H6.0996V1.3125H29.1796L33.7852 23.25H1.23047V22.7578C1.23047 19.8398 1.6875 17.584 2.60156 15.9902C3.51562 14.3965 4.69336 13.2246 6.13476 12.4746C7.54102 11.748 9.0879 11.3262 10.7754 11.209C12.4629 11.0918 14.1094 11.0332 15.7148 11.0332Z" fill="#121314"/>
</g>
<defs>
<clipPath id="clip0_1_63">
<rect width="34" height="24" fill="white"/>
</clipPath>
</defs>
</svg>
