<svg width="34" height="24" viewBox="0 0 34 24" fill="none" xmlns="http://www.w3.org/2000/svg">
<g clip-path="url(#clip0_1_36)">
<path d="M32.5546 1.89258L26.1738 6.35742C26.5254 6.4746 26.9062 6.5332 27.3164 6.5332C27.8086 6.5332 28.2188 6.46876 28.5468 6.33984C28.8868 6.21094 29.2148 6.07032 29.5312 5.91796C29.8594 5.7539 30.205 5.60156 30.5684 5.46094C30.9434 5.3086 31.4062 5.21484 31.957 5.17968L32.6954 1.69922L33.6446 1.89258L29.8828 19.9102L32.6602 21.8614L31.9922 22.6524L29.6542 21.0176L29.1796 23.25H5.69532L5.23828 21.0176L2.9004 22.6524L2.3379 21.8614L5.00976 19.9805L1.23047 1.89258L2.19726 1.69922L2.93554 5.19726C3.50976 5.23242 3.97266 5.32618 4.32422 5.47852C4.67578 5.63086 5.00976 5.7832 5.32618 5.93554C5.58398 6.0879 5.85938 6.22852 6.15234 6.35742C6.45704 6.4746 6.85546 6.5332 7.34766 6.5332C7.85156 6.5332 8.29102 6.4629 8.66602 6.32226L2.3379 1.89258L2.9004 1.10156L9.7207 5.84766C10.0605 5.67188 10.4355 5.51368 10.8457 5.37304C11.2559 5.23242 11.7773 5.1621 12.4102 5.1621C13.1016 5.1621 13.6523 5.24414 14.0625 5.4082C14.4727 5.56054 14.8535 5.7246 15.2051 5.9004C15.4863 6.05274 15.791 6.1875 16.1191 6.30468C16.4121 6.42188 16.7871 6.48046 17.2441 6.48046H17.3848C17.8887 6.48046 18.3047 6.42188 18.6328 6.30468C18.9727 6.17578 19.2891 6.04102 19.582 5.9004C19.9453 5.7246 20.3378 5.56054 20.7598 5.4082C21.1934 5.25586 21.7676 5.17968 22.4824 5.17968C23.1504 5.1914 23.6836 5.26758 24.082 5.4082C24.4804 5.54882 24.8378 5.70704 25.1542 5.88282L31.9922 1.10156L32.5546 1.89258ZM25.2246 7.0254L18.334 11.8594L29.004 19.2949L31.746 6.18164C31.2304 6.25196 30.6386 6.45704 29.9708 6.79688C29.6074 6.98438 29.2266 7.14844 28.8282 7.28906C28.4648 7.42968 28.002 7.5 27.4394 7.5H27.2988C26.5488 7.5 25.8574 7.3418 25.2246 7.0254ZM28.7754 20.4024L17.4375 12.4746L6.11718 20.4024L6.5039 22.2656H28.3886L28.7754 20.4024ZM5.88868 19.3652L16.5938 11.877L9.61524 6.99024C9.31054 7.13086 8.98242 7.2539 8.63086 7.35938C8.30274 7.45312 7.92188 7.5 7.48828 7.5H7.34766C6.72656 7.5 6.23438 7.42968 5.8711 7.28906C5.50782 7.13672 5.16796 6.97266 4.85156 6.79688C4.61718 6.67968 4.3711 6.5625 4.11328 6.44532C3.85546 6.32812 3.5332 6.2461 3.14648 6.19922L5.88868 19.3652ZM10.6348 6.49804L17.4727 11.2617L24.2402 6.51562C23.7246 6.28124 23.1328 6.16406 22.4648 6.16406C21.8672 6.16406 21.3868 6.22852 21.0234 6.35742C20.6718 6.48632 20.3378 6.62696 20.0214 6.7793C19.6699 6.95508 19.3008 7.11328 18.9141 7.2539C18.5273 7.39454 18.0176 7.46484 17.3848 7.46484H17.2441C16.6699 7.46484 16.2012 7.39454 15.8379 7.2539C15.4512 7.10156 15.0879 6.9375 14.748 6.76172C14.4434 6.6211 14.1211 6.48632 13.7812 6.35742C13.4414 6.2168 12.9844 6.14648 12.4102 6.14648C11.8008 6.14648 11.209 6.26368 10.6348 6.49804Z" fill="#121314"/>
</g>
<defs>
<clipPath id="clip0_1_36">
<rect width="34" height="24" fill="white"/>
</clipPath>
</defs>
</svg>
