<svg width="34" height="24" viewBox="0 0 34 24" fill="none" xmlns="http://www.w3.org/2000/svg">
<g clip-path="url(#clip0_1_58)">
<path d="M30.4278 12H15.6973C13.9277 12 12.2402 12.0762 10.6348 12.2285C9.0293 12.3809 7.61132 12.791 6.38086 13.459C5.1504 14.127 4.16016 15.1523 3.41016 16.5352C2.66016 17.9062 2.26172 19.8164 2.21484 22.2656H32.5722L30.4278 12ZM20.2852 15.4277C21.3984 15.4277 21.955 15.9902 21.955 17.1152C21.955 18.252 21.3984 18.8203 20.2852 18.8203C19.1719 18.8203 18.6152 18.252 18.6152 17.1152C18.6152 15.9902 19.1719 15.4277 20.2852 15.4277ZM14.6602 15.4277C15.7617 15.4277 16.3125 15.9902 16.3125 17.1152C16.3125 18.252 15.7617 18.8203 14.6602 18.8203C13.5469 18.8203 12.9902 18.252 12.9902 17.1152C12.9902 15.9902 13.5469 15.4277 14.6602 15.4277ZM15.6973 11.0332L30.2168 11.0156L28.3886 2.2793H6.0996V1.3125H29.1972L33.7676 23.25H1.23047C1.23047 20.25 1.64062 17.918 2.46094 16.2539C3.29296 14.5781 4.51758 13.3184 6.13476 12.4746C7.54102 11.748 9.0879 11.3262 10.7754 11.209C12.4629 11.0918 14.1035 11.0332 15.6973 11.0332Z" fill="#121314"/>
</g>
<defs>
<clipPath id="clip0_1_58">
<rect width="34" height="24" fill="white"/>
</clipPath>
</defs>
</svg>
