<svg width="30" height="24" viewBox="0 0 30 24" fill="none" xmlns="http://www.w3.org/2000/svg">
<g clip-path="url(#clip0_1_26)">
<path d="M11.0591 22.2338H18.8337V23.0776H11.0591V22.2338ZM28.8382 1.62222L25.0111 19.9286H4.8817L1.05469 1.62222L1.88337 1.45648L2.50111 4.4548C2.9933 4.48494 3.39007 4.56531 3.69141 4.69588C4.00279 4.82646 4.29408 4.95704 4.5653 5.08762C4.78627 5.21821 5.02233 5.33874 5.27344 5.44923C5.53461 5.54967 5.87611 5.59989 6.298 5.59989C6.71986 5.59989 7.07645 5.54466 7.36774 5.43416C7.65904 5.32367 7.9403 5.20314 8.2115 5.07255C8.52288 4.91183 8.85938 4.76619 9.22099 4.63561C9.59263 4.49499 10.0647 4.42467 10.6373 4.42467C11.2199 4.42467 11.6869 4.49499 12.0385 4.63561C12.3901 4.76619 12.7165 4.90681 13.0179 5.0575C13.2589 5.18807 13.5201 5.30358 13.8013 5.40402C14.0625 5.50448 14.3889 5.55469 14.7807 5.55469H14.9012C15.3332 5.55469 15.6897 5.50448 15.971 5.40402C16.2623 5.29354 16.5385 5.17803 16.7997 5.0575C17.101 4.90681 17.4324 4.76619 17.7941 4.63561C18.1658 4.50503 18.653 4.43973 19.2555 4.43973C19.8682 4.44978 20.3455 4.52512 20.687 4.66575C21.0386 4.79632 21.365 4.93695 21.6663 5.08762C21.8873 5.21821 22.1234 5.33874 22.3745 5.44923C22.6356 5.54967 22.9771 5.59989 23.399 5.59989C23.8209 5.59989 24.1774 5.54466 24.4687 5.43416C24.7601 5.32367 25.0413 5.20314 25.3125 5.07255C25.5837 4.93192 25.8801 4.80135 26.2015 4.68081C26.5229 4.55024 26.9196 4.46987 27.3917 4.43973L28.0095 1.45648L28.8382 1.62222ZM2.68191 5.31363L5.5597 19.0848H24.318L27.2109 5.29856C26.8795 5.33874 26.5932 5.40904 26.3522 5.5095C26.1211 5.60994 25.9001 5.7154 25.6893 5.82591C25.3778 5.98662 25.0514 6.12724 24.7099 6.24778C24.3885 6.36831 23.9916 6.42858 23.5195 6.42858H23.399C22.8667 6.42858 22.4448 6.36831 22.1333 6.24778C21.822 6.1172 21.5307 5.97657 21.2595 5.82591C21.0084 5.70536 20.7372 5.58483 20.4459 5.4643C20.1545 5.34376 19.7578 5.28349 19.2555 5.28349C18.7433 5.28349 18.3315 5.33874 18.0201 5.44923C17.7087 5.55971 17.4225 5.68026 17.1612 5.81084C16.8599 5.96151 16.5385 6.09711 16.197 6.21764C15.8655 6.33819 15.4336 6.39844 14.9012 6.39844H14.7807C14.2885 6.39844 13.8867 6.33819 13.5753 6.21764C13.2439 6.08706 12.9325 5.94644 12.6412 5.79577C12.38 5.67524 12.0988 5.55971 11.7974 5.44923C11.5061 5.3287 11.1194 5.26842 10.6373 5.26842C10.1551 5.26842 9.75837 5.3287 9.44698 5.44923C9.14565 5.56976 8.85938 5.69533 8.58818 5.82591C8.27678 5.98662 7.95034 6.12724 7.60882 6.24778C7.2874 6.36831 6.89062 6.42858 6.41853 6.42858H6.298C5.76562 6.42858 5.34375 6.36831 5.03237 6.24778C4.72099 6.1172 4.42968 5.97657 4.15848 5.82591C3.94754 5.72545 3.73159 5.62501 3.5106 5.52457C3.28963 5.42411 3.01339 5.35381 2.68191 5.31363Z" fill="#121314"/>
</g>
<defs>
<clipPath id="clip0_1_26">
<rect width="29.1429" height="24" fill="white"/>
</clipPath>
</defs>
</svg>
