<svg width="34" height="24" viewBox="0 0 34 24" fill="none" xmlns="http://www.w3.org/2000/svg">
<g clip-path="url(#clip0_1_53)">
<path d="M11.8828 15.4277C13.0078 15.4277 13.5703 15.9961 13.5703 17.1328C13.5703 18.2578 13.0078 18.8203 11.8828 18.8203C10.7578 18.8203 10.1953 18.2578 10.1953 17.1328C10.1953 15.9961 10.7578 15.4277 11.8828 15.4277ZM30.4278 12H15.7148C14.168 12 12.5859 12.0586 10.9688 12.1758C9.35156 12.2812 7.89258 12.668 6.5918 13.3359C5.3496 13.9922 4.32422 15.0117 3.51562 16.3945C2.70704 17.7773 2.2793 19.7344 2.23242 22.2656H32.5722L30.4278 12ZM23.1328 15.4277C24.2696 15.4277 24.8378 15.9961 24.8378 17.1328C24.8378 18.2578 24.2696 18.8203 23.1328 18.8203C22.0196 18.8203 21.4628 18.2578 21.4628 17.1328C21.4628 15.9961 22.0196 15.4277 23.1328 15.4277ZM17.5078 15.4277C18.6328 15.4277 19.1953 15.9961 19.1953 17.1328C19.1953 18.2578 18.6328 18.8203 17.5078 18.8203C16.3828 18.8203 15.8203 18.2578 15.8203 17.1328C15.8203 15.9961 16.3828 15.4277 17.5078 15.4277ZM15.7148 11.0332L30.2168 11.0156L28.4062 2.2793H6.11718V1.3125H29.1972L33.7852 23.25H1.23047V22.7578C1.23047 19.8398 1.6875 17.584 2.60156 15.9902C3.52734 14.3965 4.71094 13.2246 6.15234 12.4746C7.5586 11.748 9.0996 11.3262 10.7754 11.209C12.4629 11.0918 14.1094 11.0332 15.7148 11.0332Z" fill="#121314"/>
</g>
<defs>
<clipPath id="clip0_1_53">
<rect width="34" height="24" fill="white"/>
</clipPath>
</defs>
</svg>
