<svg width="28" height="24" viewBox="0 0 28 24" fill="none" xmlns="http://www.w3.org/2000/svg">
<g clip-path="url(#clip0_1_47)">
<path d="M26.9698 3.64955L18.3967 9.64619L22.0581 17.27L27.0603 20.7506L26.4878 21.4436L22.8415 18.8972L24.9811 23.3571H3.04353L5.19811 18.8972L1.53683 21.4436L1.05469 20.7506L5.93638 17.3455L9.62779 9.64619L1.05469 3.64955L1.53683 2.97153L10.0045 8.86271L14.0123 0.500549L18.0351 8.87778L26.4878 2.97153L26.9698 3.64955ZM17.7036 10.1434L14.7656 12.1925L20.6568 16.2907L17.7036 10.1434ZM21.4402 17.9179L14.0123 12.7199L6.58426 17.9179L4.38449 22.5134H23.64L21.4402 17.9179ZM7.32254 16.3661L13.2891 12.2076L10.3209 10.1434L7.32254 16.3661ZM10.6975 9.35992L14.0424 11.6802L17.3421 9.37499L14.0123 2.44419L10.6975 9.35992Z" fill="#121314"/>
</g>
<defs>
<clipPath id="clip0_1_47">
<rect width="27.4286" height="24" fill="white"/>
</clipPath>
</defs>
</svg>
