<svg width="24" height="24" viewBox="0 0 24 24" fill="none" xmlns="http://www.w3.org/2000/svg">
<g clip-path="url(#clip0_1_74)">
<path d="M11.9029 1.67578C14.8862 1.67578 17.4375 2.73549 19.5569 4.85491C21.6864 6.97433 22.7511 9.53069 22.7511 12.524C22.7511 15.5173 21.6864 18.0737 19.5569 20.1931C17.4375 22.3025 14.8862 23.3571 11.9029 23.3571C8.89956 23.3571 6.33818 22.3025 4.21875 20.1931C2.10938 18.0737 1.05469 15.5173 1.05469 12.524C1.05469 9.53069 2.10938 6.97433 4.21875 4.85491C6.33818 2.73549 8.89956 1.67578 11.9029 1.67578ZM18.9693 5.44251C17.0106 3.48382 14.6501 2.50447 11.8878 2.50447C9.12556 2.50447 6.77009 3.48382 4.82143 5.44251C2.86272 7.40122 1.88337 9.7567 1.88337 12.5089C1.88337 15.2712 2.86272 17.6266 4.82143 19.5753C6.77009 21.534 9.12556 22.5134 11.8878 22.5134C14.6501 22.5134 17.0106 21.534 18.9693 19.5753C20.9179 17.6266 21.8923 15.2712 21.8923 12.5089C21.8923 9.7567 20.9179 7.40122 18.9693 5.44251Z" fill="#121314"/>
</g>
<defs>
<clipPath id="clip0_1_74">
<rect width="24" height="24" fill="white"/>
</clipPath>
</defs>
</svg>
