<svg width="28" height="24" viewBox="0 0 28 24" fill="none" xmlns="http://www.w3.org/2000/svg">
<g clip-path="url(#clip0_1_79)">
<path d="M26.9547 4.47823L23.3688 6.99442C24.3734 8.70201 24.8755 10.5251 24.8755 12.4637V12.9308C24.7851 15.0502 24.1373 16.9788 22.932 18.7166L27.0603 21.5943L26.4878 22.2874L22.3894 19.4097C20.2198 22.0413 17.4375 23.3571 14.0424 23.3571C14.0324 23.3571 14.0273 23.3522 14.0273 23.3421C10.6122 23.3421 7.81975 22.0262 5.65012 19.3946L1.53683 22.2874L1.05469 21.5943L5.1529 18.7317C3.92746 17.0039 3.26954 15.0753 3.17913 12.9459C3.16908 12.7852 3.16406 12.6244 3.16406 12.4637C3.16406 10.5251 3.66629 8.71205 4.67076 7.02456L1.05469 4.47823L1.53683 3.80023L5.13784 6.31641C6.21261 4.77958 7.5385 3.62445 9.11551 2.85101C10.7026 2.07756 12.3398 1.68583 14.0273 1.67578H14.0575C15.7249 1.67578 17.347 2.06249 18.9242 2.83594C20.5011 3.60938 21.8321 4.76451 22.9169 6.30134L26.4878 3.80023L26.9547 4.47823ZM22.6757 7.49163L14.7656 13.0212L22.2389 18.2343C23.3438 16.6473 23.9364 14.8795 24.0168 12.9308C24.0267 12.7902 24.0319 12.6445 24.0319 12.4939C24.0319 10.716 23.5798 9.04855 22.6757 7.49163ZM21.6963 18.9274L14.0123 13.5485L6.3432 18.9123C8.33203 21.313 10.8884 22.5134 14.0123 22.5134C14.0123 22.5235 14.0173 22.5285 14.0273 22.5285C17.1311 22.5285 19.6875 21.3281 21.6963 18.9274ZM5.83092 18.2494L13.274 13.0513L5.36385 7.5067C4.46986 9.05357 4.02288 10.7109 4.02288 12.4788C4.02288 12.6395 4.0279 12.7952 4.03795 12.9459C4.1183 14.8945 4.71597 16.6624 5.83092 18.2494ZM5.83092 6.78348L14.0273 12.524L22.2238 6.76841C21.2193 5.35212 19.9889 4.29242 18.5323 3.58929C17.0759 2.87611 15.5742 2.51954 14.0273 2.51954C12.4704 2.51954 10.9637 2.87611 9.50726 3.58929C8.05078 4.30246 6.82534 5.36719 5.83092 6.78348Z" fill="#121314"/>
</g>
<defs>
<clipPath id="clip0_1_79">
<rect width="27.4286" height="24" fill="white"/>
</clipPath>
</defs>
</svg>
