<svg width="16" height="16" viewBox="0 0 16 16" fill="none" xmlns="http://www.w3.org/2000/svg">
<path d="M8 16L7.663 15.667C6.989 15.002 6.4 14.419 5.726 13.837C2.611 10.924 0 8.42802 0 5.43302C0 3.10302 1.6 1.18902 3.621 1.02302C5.305 0.856021 6.737 1.60502 8 3.18602C9.263 1.60602 10.695 0.856021 12.379 1.02302C14.484 1.18902 16 3.10302 16 5.43302C16 8.42802 13.305 10.924 10.274 13.837C9.6 14.419 9.011 15.085 8.337 15.667L8 16ZM4.042 1.85502H3.705C2.105 2.02002 0.842 3.51902 0.842 5.43302C0.842 8.09502 3.368 10.508 6.316 13.254C6.906 13.754 7.411 14.336 8 14.835C8.59 14.253 9.095 13.753 9.684 13.255C12.632 10.508 15.158 8.09502 15.158 5.43302C15.158 3.51902 13.895 2.02102 12.295 1.85502C10.863 1.68802 9.515 2.43702 8.337 4.10102L8 4.60102L7.663 4.10102C6.568 2.60402 5.39 1.85502 4.043 1.85502" fill="#131313"/>
</svg>
