<svg width="24" height="24" viewBox="0 0 24 24" fill="none" xmlns="http://www.w3.org/2000/svg">
<g clip-path="url(#clip0_1_85)">
<path d="M23.6575 0.786011V23.3076H1.1358V0.786011H23.6575ZM12.4128 2.9603C14.4249 2.9603 16.1556 3.50115 17.6051 4.58288C19.0654 5.66462 20.1256 6.99514 20.7855 8.57447C21.2505 9.7103 21.4831 10.8948 21.4831 12.128C21.4831 12.6256 21.4453 13.1286 21.3696 13.637C21.0991 15.4327 20.2501 17.0444 18.8221 18.4724C17.3942 19.9002 15.7824 20.7494 13.9868 21.0197C13.4675 21.0956 12.9537 21.1334 12.4453 21.1334C11.2121 21.1334 10.0384 20.9008 8.92426 20.4356C7.33413 19.7758 5.99818 18.7211 4.91646 17.2716C3.84554 15.8112 3.31009 14.0697 3.31009 12.0468C3.31009 9.54804 4.19711 7.41161 5.97115 5.63757C7.74517 3.85271 9.89242 2.9603 12.4128 2.9603ZM18.3353 6.12435C17.0156 4.81546 15.5282 4.03661 13.8732 3.78782C13.3864 3.71209 12.9104 3.67422 12.4453 3.67422C11.3095 3.67422 10.2223 3.89057 9.18388 4.32328C7.72354 4.92904 6.49577 5.90261 5.50058 7.24395C4.5054 8.58529 4.0078 10.1863 4.0078 12.0468C4.0078 13.9074 4.5054 15.5138 5.50058 16.8659C6.49577 18.2073 7.72354 19.1808 9.18388 19.7867C10.2223 20.2192 11.3095 20.4356 12.4453 20.4356C12.9104 20.4356 13.3864 20.3977 13.8732 20.322C15.5282 20.0732 17.0156 19.2889 18.3353 17.9693C19.9687 16.3467 20.7855 14.378 20.7855 12.0631C20.7855 9.74815 19.9687 7.76859 18.3353 6.12435ZM22.7488 1.69467H2.04445V22.399H22.7488V1.69467Z" fill="#121314"/>
</g>
<defs>
<clipPath id="clip0_1_85">
<rect width="24" height="24" fill="white"/>
</clipPath>
</defs>
</svg>
