<svg width="30" height="24" viewBox="0 0 30 24" fill="none" xmlns="http://www.w3.org/2000/svg">
<g clip-path="url(#clip0_1_90)">
<path d="M26.3996 0.786011V3.52819L28.5253 2.05164L29.0444 2.79802L26.3996 4.63157V19.3161L29.1419 21.2145L28.5253 21.9609L26.3996 20.4681V23.3076H3.878V20.4033L1.65503 21.9609L1.1358 21.2145L3.878 19.2998V4.71269L1.1358 2.79802L1.65503 2.05164L3.878 3.5931V0.786011H26.3996ZM25.5072 5.26437L22.8136 7.14658C23.7548 8.62856 24.2308 10.2457 24.2416 11.9981V12.0306C24.2416 13.7722 23.7818 15.3732 22.8624 16.8335L25.5072 18.6832V5.26437ZM22.2295 7.55224L15.9014 11.9981L22.2945 16.4441C23.1166 15.1027 23.5276 13.6424 23.5276 12.0631V11.9981C23.5168 10.3972 23.0841 8.91521 22.2295 7.55224ZM25.5072 19.8352L22.327 17.6123C20.4988 19.9596 18.1082 21.1334 15.155 21.1334H15.1064C12.1316 21.1225 9.73557 19.9327 7.91825 17.5637L4.78664 19.7704V22.399H25.5072V19.8352ZM21.7427 17.2229L15.0901 12.5661L8.50239 17.158C10.1683 19.3323 12.3696 20.4249 15.1064 20.4356H15.1388C17.8648 20.4356 20.066 19.3648 21.7427 17.2229ZM4.78664 18.667L7.41525 16.8335C6.49577 15.3732 6.03604 13.7776 6.03604 12.0468C6.03604 12.036 6.04145 12.0252 6.05227 12.0144C6.05227 10.2836 6.51741 8.68264 7.4477 7.21149L4.78664 5.34551V18.667ZM7.98316 16.4278L14.2951 12.0144L8.03185 7.61715C7.18808 8.95849 6.76081 10.4242 6.74999 12.0144V12.0793C6.74999 13.6478 7.16105 15.0973 7.98316 16.4278ZM4.78664 4.22591L7.96693 6.46509C9.78423 4.13938 12.1695 2.97112 15.1226 2.9603H15.1388C18.0703 2.9603 20.4556 4.11233 22.2945 6.41643L25.5072 4.17725V1.69467H4.78664V4.22591ZM8.55108 6.87075L15.1226 11.4465L21.7104 6.82206C20.0337 4.7235 17.8485 3.67422 15.155 3.67422H15.1226C12.4183 3.68504 10.2278 4.75055 8.55108 6.87075Z" fill="#121314"/>
</g>
<defs>
<clipPath id="clip0_1_90">
<rect width="29.5385" height="24" fill="white"/>
</clipPath>
</defs>
</svg>
