<svg width="24" height="24" viewBox="0 0 24 24" fill="none" xmlns="http://www.w3.org/2000/svg">
<g clip-path="url(#clip0_1_95)">
<path d="M12.3966 10.4891C13.4351 10.4891 13.9543 11.0084 13.9543 12.0468C13.9543 13.0853 13.4351 13.6045 12.3966 13.6045C11.3582 13.6045 10.8389 13.0853 10.8389 12.0468C10.8389 11.0084 11.3582 10.4891 12.3966 10.4891ZM23.6575 0.786011V23.3076H1.1358V0.786011H23.6575ZM12.3966 2.9603C14.8954 2.9603 17.0318 3.85271 18.8058 5.63757C20.5907 7.41161 21.4831 9.54804 21.4831 12.0468C21.4831 14.5565 20.5907 16.6983 18.8058 18.4724C17.0318 20.2464 14.8954 21.1334 12.3966 21.1334C9.87619 21.1334 7.72895 20.2464 5.95492 18.4724C4.1917 16.6983 3.31009 14.5565 3.31009 12.0468C3.31009 9.54804 4.1917 7.41161 5.95492 5.63757C7.72895 3.85271 9.87619 2.9603 12.3966 2.9603ZM18.3191 6.12435C16.6749 4.49094 14.6953 3.67422 12.3804 3.67422C10.0655 3.67422 8.09133 4.49094 6.45792 6.12435C4.81368 7.76859 3.99157 9.74815 3.99157 12.0631C3.99157 14.378 4.81368 16.3467 6.45792 17.9693C8.09133 19.6135 10.0655 20.4356 12.3804 20.4356C14.6953 20.4356 16.6749 19.6135 18.3191 17.9693C19.9525 16.3467 20.7692 14.378 20.7692 12.0631C20.7692 9.74815 19.9525 7.76859 18.3191 6.12435ZM22.7488 1.69467H2.04445V22.399H22.7488V1.69467Z" fill="#121314"/>
</g>
<defs>
<clipPath id="clip0_1_95">
<rect width="24" height="24" fill="white"/>
</clipPath>
</defs>
</svg>
