<svg width="18" height="18" viewBox="0 0 18 18" fill="none" xmlns="http://www.w3.org/2000/svg">
<path d="M9 0C7.63603 0 6.32792 0.474106 5.36345 1.31802C4.39898 2.16193 3.85714 3.30653 3.85714 4.5C3.85714 5.69347 4.39898 6.83807 5.36345 7.68198C6.32792 8.52589 7.63603 9 9 9C10.364 9 11.6721 8.52589 12.6365 7.68198C13.601 6.83807 14.1429 5.69347 14.1429 4.5C14.1429 3.30653 13.601 2.16193 12.6365 1.31802C11.6721 0.474106 10.364 0 9 0ZM5.14286 4.5C5.14286 3.60489 5.54923 2.74645 6.27259 2.11351C6.99594 1.48058 7.97702 1.125 9 1.125C10.023 1.125 11.0041 1.48058 11.7274 2.11351C12.4508 2.74645 12.8571 3.60489 12.8571 4.5C12.8571 5.39511 12.4508 6.25355 11.7274 6.88649C11.0041 7.51942 10.023 7.875 9 7.875C7.97702 7.875 6.99594 7.51942 6.27259 6.88649C5.54923 6.25355 5.14286 5.39511 5.14286 4.5ZM2.583 10.125C2.24434 10.1237 1.90872 10.1809 1.5954 10.2934C1.28209 10.4058 0.997247 10.5714 0.757241 10.7804C0.517234 10.9895 0.326789 11.238 0.196839 11.5116C0.0668901 11.7853 -3.42882e-06 12.0787 1.3182e-10 12.375C1.3182e-10 14.2774 1.071 15.7118 2.745 16.6466C4.39329 17.5658 6.615 18 9 18C11.385 18 13.6067 17.5658 15.255 16.6466C16.929 15.7129 18 14.2762 18 12.375C18 11.7783 17.7291 11.206 17.2468 10.784C16.7646 10.3621 16.1106 10.125 15.4286 10.125H2.583ZM1.28571 12.375C1.28571 11.7529 1.86171 11.25 2.583 11.25H15.4286C15.7696 11.25 16.0966 11.3685 16.3377 11.5795C16.5788 11.7905 16.7143 12.0766 16.7143 12.375C16.7143 13.8476 15.9146 14.9445 14.5633 15.6971C13.1876 16.4655 11.2307 16.875 9 16.875C6.76929 16.875 4.81243 16.4655 3.43671 15.6971C2.08671 14.9434 1.28571 13.8488 1.28571 12.375Z" fill="black"/>
</svg>
