<svg width="18" height="12" viewBox="0 0 18 12" fill="none" xmlns="http://www.w3.org/2000/svg">
<path d="M9.00001 0C3.74189 0 0.317093 5.26012 0.173598 5.48289L0 5.75382L0.173598 6.02476C0.317093 6.24752 3.74289 11.5076 9.00001 11.5076C14.2571 11.5076 17.6829 6.24752 17.8264 6.02476L18 5.75382L17.8264 5.48289C17.6829 5.26012 14.2571 0 9.00001 0ZM9.00001 10.5042C4.94002 10.5042 1.96577 6.79842 1.20716 5.75382C1.96477 4.70922 4.94002 1.00346 9.00001 1.00346C13.06 1.00346 16.0342 4.70922 16.7929 5.75382C16.0352 6.79842 13.06 10.5042 9.00001 10.5042ZM9.00001 2.74345C7.34029 2.74345 5.98963 4.0941 5.98963 5.75382C5.98963 7.41354 7.34029 8.76419 9.00001 8.76419C10.6597 8.76419 12.0104 7.41354 12.0104 5.75382C12.0104 4.0941 10.6597 2.74345 9.00001 2.74345ZM9.00001 7.76074C7.89319 7.76074 6.99309 6.86064 6.99309 5.75382C6.99309 4.64701 7.89319 3.74691 9.00001 3.74691C10.1068 3.74691 11.0069 4.64701 11.0069 5.75382C11.0069 6.86064 10.1068 7.76074 9.00001 7.76074Z" fill="#131313"/>
</svg>
