<svg width="27" height="4" viewBox="0 0 27 4" fill="none" xmlns="http://www.w3.org/2000/svg">
<path d="M3.88538 3.44911V1.90478C3.88538 1.31253 3.52493 0.926597 2.9333 0.926597C2.62257 0.926597 2.29008 1.02976 2.05828 1.36162C1.87806 1.07823 1.62326 0.926597 1.23484 0.926597C1.09043 0.920356 0.946723 0.950014 0.816579 1.01292C0.686436 1.07582 0.573917 1.17 0.48909 1.28705V0.976315H0V3.44724H0.48909V2.03342C0.48909 1.5984 0.746375 1.39021 1.10682 1.39021C1.46727 1.39021 1.67297 1.62201 1.67297 2.03342V3.44911H2.16206V2.03342C2.16206 1.5984 2.41935 1.39021 2.7798 1.39021C3.14024 1.39021 3.34595 1.62201 3.34595 2.03342V3.44911H3.88538ZM11.9159 1.00366H11.0148V0.257906H10.5269V1.00366H10.0124V1.43868H10.5269V2.59957C10.5269 3.16572 10.7326 3.50069 11.3504 3.50069C11.5844 3.49581 11.8137 3.43395 12.0184 3.32047L11.8637 2.88544C11.7248 2.97223 11.5638 3.01692 11.4001 3.01409C11.1428 3.01409 11.0142 2.85934 11.0142 2.60206V1.41879H11.9153V1.00677L11.9159 1.00366ZM16.4973 0.926597C16.3641 0.923629 16.2324 0.955284 16.1151 1.01846C15.9978 1.08164 15.8988 1.17419 15.828 1.28705V0.976315H15.3389V3.44724H15.828V2.05952C15.828 1.64749 16.0337 1.39021 16.3687 1.39021C16.4817 1.39479 16.5939 1.4121 16.703 1.44179L16.8578 0.978179C16.7397 0.948427 16.6189 0.931138 16.4973 0.926597ZM9.57361 1.18388C9.31633 1.00366 8.95588 0.926597 8.56995 0.926597C7.95222 0.926597 7.56629 1.20998 7.56629 1.69907C7.56629 2.1111 7.84968 2.34229 8.38973 2.41997L8.64701 2.44545C8.9304 2.49703 9.11062 2.60019 9.11062 2.72883C9.11062 2.90906 8.90492 3.03956 8.51837 3.03956C8.22322 3.04564 7.93413 2.95531 7.69493 2.78228L7.43765 3.16821C7.7981 3.42549 8.23561 3.47894 8.49413 3.47894C9.21503 3.47894 9.60096 3.14459 9.60096 2.68098C9.60096 2.24596 9.29023 2.03777 8.75142 1.96009L8.49413 1.93461C8.26233 1.90913 8.05911 1.83145 8.05911 1.67732C8.05911 1.4971 8.26482 1.36659 8.5482 1.36659C8.85893 1.36659 9.16593 1.49523 9.32068 1.5723L9.57361 1.18388ZM17.038 2.21364C17.038 2.9594 17.5271 3.50069 18.325 3.50069C18.6855 3.50069 18.9428 3.42363 19.2 3.2173L18.9428 2.83138C18.7606 2.9789 18.5339 3.06058 18.2996 3.06318C17.8645 3.06318 17.5271 2.72883 17.5271 2.23974C17.5271 1.75065 17.8602 1.41879 18.2996 1.41879C18.5339 1.42139 18.7606 1.50307 18.9428 1.6506L19.2 1.26467C18.9428 1.05897 18.6855 0.981286 18.325 0.981286C17.5526 0.929704 17.038 1.47038 17.038 2.21675V2.21364ZM13.5889 0.926597C12.868 0.926597 12.3789 1.44117 12.3789 2.21364C12.3789 2.98612 12.8935 3.50069 13.6398 3.50069C14.0029 3.50836 14.3575 3.39024 14.6435 3.16634L14.3862 2.8059C14.1794 2.96616 13.9269 3.05628 13.6653 3.06318C13.331 3.06318 12.9705 2.85748 12.9196 2.41997H14.7473V2.21426C14.7473 1.44179 14.2837 0.927219 13.5889 0.927219V0.926597ZM13.5634 1.39021C13.9238 1.39021 14.1811 1.62201 14.2066 2.00794H12.8686C12.9457 1.64749 13.1793 1.39021 13.5634 1.39021ZM6.89698 2.21364V0.978179H6.40789V1.28891C6.22766 1.0571 5.97287 0.928461 5.60993 0.928461C4.91514 0.928461 4.39995 1.46913 4.39995 2.21551C4.39995 2.96188 4.91452 3.50255 5.60993 3.50255C5.97038 3.50255 6.22766 3.37391 6.40789 3.14211V3.45284H6.89698V2.21364ZM4.91514 2.21364C4.91514 1.75003 5.19852 1.39021 5.68762 1.39021C6.15123 1.39021 6.43337 1.75066 6.43337 2.21364C6.43337 2.70273 6.12264 3.03708 5.68762 3.03708C5.19852 3.06256 4.91514 2.67663 4.91514 2.21364ZM23.9368 0.926597C23.8036 0.923629 23.6719 0.955284 23.5546 1.01846C23.4373 1.08164 23.3384 1.17419 23.2675 1.28705V0.976315H22.7784V3.44724H23.2669V2.05952C23.2669 1.64749 23.4726 1.39021 23.8076 1.39021C23.9206 1.39479 24.0328 1.4121 24.1419 1.44179L24.2967 0.978179C24.1786 0.948427 24.0578 0.931138 23.9362 0.926597H23.9368ZM22.032 2.21364V0.978179H21.543V1.28891C21.3627 1.0571 21.1079 0.928461 20.745 0.928461C20.0502 0.928461 19.535 1.46913 19.535 2.21551C19.535 2.96188 20.0496 3.50255 20.745 3.50255C21.1054 3.50255 21.3627 3.37391 21.543 3.14211V3.45284H22.032V2.21364ZM20.0502 2.21364C20.0502 1.75003 20.3336 1.39021 20.8227 1.39021C21.2863 1.39021 21.5684 1.75066 21.5684 2.21364C21.5684 2.70273 21.2577 3.03708 20.8227 3.03708C20.3336 3.06256 20.0502 2.67663 20.0502 2.21364ZM27 2.21364V0H26.5109V1.28705C26.3307 1.05524 26.0759 0.926597 25.713 0.926597C25.0182 0.926597 24.503 1.46727 24.503 2.21364C24.503 2.96002 25.0176 3.50069 25.713 3.50069C26.0734 3.50069 26.3307 3.37205 26.5109 3.14024V3.45097H27V2.21364ZM25.0182 2.21364C25.0182 1.75003 25.3016 1.39021 25.7906 1.39021C26.2543 1.39021 26.5364 1.75066 26.5364 2.21364C26.5364 2.70273 26.2257 3.03708 25.7906 3.03708C25.3009 3.06318 25.0175 2.67725 25.0175 2.21364H25.0182Z" fill="black"/>
</svg>
