<svg width="18" height="21" viewBox="0 0 18 21" fill="none" xmlns="http://www.w3.org/2000/svg">
<path d="M9 0C7.63603 0 6.32792 0.553123 5.36345 1.53769C4.39898 2.52226 3.85714 3.85761 3.85714 5.25C3.85714 6.64239 4.39898 7.97775 5.36345 8.96231C6.32792 9.94688 7.63603 10.5 9 10.5C10.364 10.5 11.6721 9.94688 12.6365 8.96231C13.601 7.97775 14.1429 6.64239 14.1429 5.25C14.1429 3.85761 13.601 2.52226 12.6365 1.53769C11.6721 0.553123 10.364 0 9 0ZM5.14286 5.25C5.14286 4.20571 5.54923 3.20419 6.27259 2.46577C6.99594 1.72734 7.97702 1.3125 9 1.3125C10.023 1.3125 11.0041 1.72734 11.7274 2.46577C12.4508 3.20419 12.8571 4.20571 12.8571 5.25C12.8571 6.29429 12.4508 7.29581 11.7274 8.03423C11.0041 8.77266 10.023 9.1875 9 9.1875C7.97702 9.1875 6.99594 8.77266 6.27259 8.03423C5.54923 7.29581 5.14286 6.29429 5.14286 5.25ZM2.583 11.8125C2.24434 11.8109 1.90872 11.8777 1.5954 12.0089C1.28209 12.1401 0.997247 12.3332 0.757241 12.5772C0.517234 12.8211 0.326789 13.111 0.196839 13.4302C0.0668901 13.7495 -3.42882e-06 14.0918 1.3182e-10 14.4375C1.3182e-10 16.6569 1.071 18.3304 2.745 19.4211C4.39329 20.4934 6.615 21 9 21C11.385 21 13.6067 20.4934 15.255 19.4211C16.929 18.3317 18 16.6556 18 14.4375C18 13.7413 17.7291 13.0736 17.2468 12.5813C16.7646 12.0891 16.1106 11.8125 15.4286 11.8125H2.583ZM1.28571 14.4375C1.28571 13.7117 1.86171 13.125 2.583 13.125H15.4286C15.7696 13.125 16.0966 13.2633 16.3377 13.5094C16.5788 13.7556 16.7143 14.0894 16.7143 14.4375C16.7143 16.1556 15.9146 17.4352 14.5633 18.3133C13.1876 19.2097 11.2307 19.6875 9 19.6875C6.76929 19.6875 4.81243 19.2097 3.43671 18.3133C2.08671 17.4339 1.28571 16.1569 1.28571 14.4375Z" fill="black"/>
</svg>
