<svg width="16" height="15" viewBox="0 0 16 15" fill="none" xmlns="http://www.w3.org/2000/svg">
<path d="M8 14.9999L7.663 14.6669C6.989 14.0019 6.4 13.4189 5.726 12.8369C2.611 9.9239 0 7.4279 0 4.4329C0 2.1029 1.6 0.188899 3.621 0.0228989C5.305 -0.144101 6.737 0.604899 8 2.1859C9.263 0.605899 10.695 -0.144101 12.379 0.0228989C14.484 0.188899 16 2.1029 16 4.4329C16 7.4279 13.305 9.9239 10.274 12.8369C9.6 13.4189 9.011 14.0849 8.337 14.6669L8 14.9999ZM4.042 0.854899H3.705C2.105 1.0199 0.842 2.5189 0.842 4.4329C0.842 7.0949 3.368 9.5079 6.316 12.2539C6.906 12.7539 7.411 13.3359 8 13.8349C8.59 13.2529 9.095 12.7529 9.684 12.2549C12.632 9.5079 15.158 7.0949 15.158 4.4329C15.158 2.5189 13.895 1.0209 12.295 0.854899C10.863 0.687899 9.515 1.4369 8.337 3.1009L8 3.6009L7.663 3.1009C6.568 1.6039 5.39 0.854899 4.043 0.854899" fill="#131313"/>
</svg>
