<svg width="18" height="14" viewBox="0 0 18 14" fill="none" xmlns="http://www.w3.org/2000/svg">
<path fill-rule="evenodd" clip-rule="evenodd" d="M7.27876 0H10.7212C12.26 0 13.4789 9.53674e-08 14.4325 0.1224C15.4136 0.2488 16.2081 0.5144 16.8352 1.1128C17.4614 1.712 17.7393 2.4712 17.8716 3.4088C17.947 3.9472 17.9779 4.5736 17.9905 5.2992C18.0009 5.36006 18.002 5.42203 17.9938 5.4832C17.9989 5.93547 18.0008 6.42613 17.9997 6.9552V7.0448C17.9997 8.5152 17.9997 9.68 17.8716 10.5912C17.7393 11.5288 17.4614 12.288 16.8352 12.8872C16.2081 13.4856 15.4136 13.7512 14.4325 13.8776C13.4781 14 12.26 14 10.7212 14H7.27876C5.74002 14 4.52108 14 3.56753 13.8776C2.58636 13.7512 1.79187 13.4856 1.16482 12.8872C0.538612 12.288 0.260668 11.5288 0.128393 10.5912C0.000304427 9.6792 0.000304432 8.5152 0.000304432 7.0448V6.9552C-0.00081181 6.42613 0.00114159 5.93547 0.00616467 5.4832C-0.00227791 5.42207 -0.00143197 5.3601 0.00867623 5.2992C0.0220711 4.5736 0.0530468 3.9472 0.128393 3.4088C0.260668 2.4712 0.538612 1.712 1.16482 1.1128C1.79187 0.5144 2.58636 0.2488 3.56753 0.1224C4.52192 9.53674e-08 5.74002 0 7.27876 0ZM1.25775 6C1.25663 6.3104 1.25608 6.64373 1.25608 7C1.25608 8.5256 1.25775 9.6096 1.37328 10.432C1.4863 11.236 1.69894 11.7 2.05307 12.0384C2.4072 12.3768 2.89277 12.58 3.73497 12.688C4.59559 12.7984 5.72913 12.8 7.32564 12.8H10.6744C12.2709 12.8 13.4052 12.7984 14.2659 12.688C15.1072 12.58 15.5928 12.3768 15.9469 12.0384C16.3011 11.7 16.5137 11.236 16.6267 10.4312C16.7423 9.6088 16.7439 8.5256 16.7439 7C16.7439 6.64373 16.7434 6.3104 16.7423 6H1.25775ZM16.7222 4.8H1.27784C1.29459 4.3304 1.32305 3.9248 1.37328 3.568C1.4863 2.764 1.69894 2.3 2.05307 1.9616C2.4072 1.6232 2.89277 1.42 3.73497 1.312C4.59559 1.2016 5.72913 1.2 7.32564 1.2H10.6744C12.2709 1.2 13.4052 1.2016 14.2659 1.312C15.1072 1.42 15.5928 1.6232 15.9469 1.9616C16.3011 2.3 16.5137 2.764 16.6267 3.5688C16.677 3.9248 16.7054 4.3304 16.7222 4.8ZM3.34903 10.2C3.34903 10.0409 3.41518 9.88826 3.53293 9.77574C3.65068 9.66321 3.81039 9.6 3.97691 9.6H7.32564C7.49216 9.6 7.65187 9.66321 7.76962 9.77574C7.88737 9.88826 7.95352 10.0409 7.95352 10.2C7.95352 10.3591 7.88737 10.5117 7.76962 10.6243C7.65187 10.7368 7.49216 10.8 7.32564 10.8H3.97691C3.81039 10.8 3.65068 10.7368 3.53293 10.6243C3.41518 10.5117 3.34903 10.3591 3.34903 10.2ZM8.7907 10.2C8.7907 10.0409 8.85686 9.88826 8.97461 9.77574C9.09236 9.66321 9.25206 9.6 9.41859 9.6H10.6744C10.8409 9.6 11.0006 9.66321 11.1183 9.77574C11.2361 9.88826 11.3022 10.0409 11.3022 10.2C11.3022 10.3591 11.2361 10.5117 11.1183 10.6243C11.0006 10.7368 10.8409 10.8 10.6744 10.8H9.41859C9.25206 10.8 9.09236 10.7368 8.97461 10.6243C8.85686 10.5117 8.7907 10.3591 8.7907 10.2Z" fill="black"/>
</svg>
