<svg width="35" height="13" viewBox="0 0 35 13" fill="none" xmlns="http://www.w3.org/2000/svg">
<path d="M0.000224506 5.50081H1.68137L2.06043 4.62478H2.90906L3.28713 5.50081H6.59491V4.8311L6.89018 5.50372H8.60734L8.90261 4.82113V5.50085H17.1231L17.1193 4.06284H17.2784C17.3897 4.06657 17.4222 4.0764 17.4222 4.2526V5.50085H21.6739V5.16611C22.0169 5.34212 22.5503 5.50085 23.2521 5.50085H25.0407L25.4235 4.62483H26.2722L26.6465 5.50085H30.0933V4.66874L30.6154 5.50085H33.3775V0H30.6439V0.649631L30.2612 0H27.4562V0.649631L27.1047 0H23.316C22.6818 0 22.1243 0.0848184 21.674 0.321179V0H19.0594V0.321179C18.7728 0.0775444 18.3823 0 17.9481 0H8.39581L7.75489 1.42072L7.09669 0H4.08808V0.649631L3.75752 0H1.19163L0 2.61532V5.50072H0.000134703L0.000224506 5.50081ZM10.6122 4.7074H9.60352L9.59979 1.61846L8.17306 4.70736H7.30916L5.87869 1.61573V4.70736H3.87745L3.49938 3.82765H1.45067L1.06878 4.70736H8.98027e-05L1.76206 0.763366H3.224L4.89742 4.49753V0.763366H6.50336L7.79104 3.4389L8.97392 0.763366H10.6121L10.6122 4.7074ZM3.16307 3.0091L2.48964 1.43679L1.81994 3.0091H3.16307ZM14.6264 4.70731H11.3394V0.763321H14.6264V1.58461H12.3234V2.29553H14.5712V3.10398H12.3234V3.89164H14.6263L14.6264 4.70731ZM19.2584 1.82555C19.2584 2.45435 18.8204 2.77925 18.5651 2.87678C18.7804 2.95526 18.9644 3.09401 19.0519 3.20891C19.1908 3.40509 19.2148 3.58029 19.2148 3.93254V4.70731H18.2223L18.2185 4.20994C18.2185 3.97264 18.2423 3.63134 18.0633 3.44159C17.9195 3.30284 17.7003 3.27276 17.3461 3.27276H16.2899V4.70736H15.3059V0.763321H17.569C18.0718 0.763321 18.4423 0.776028 18.7604 0.952221C19.0717 1.12841 19.2584 1.38561 19.2584 1.82555ZM18.0146 2.41115C17.8794 2.48982 17.7195 2.49242 17.5279 2.49242H16.3326V1.6164H17.5441C17.7156 1.6164 17.8945 1.62376 18.0108 1.68752C18.1384 1.745 18.2174 1.86726 18.2174 2.03618C18.2174 2.2086 18.1422 2.3473 18.0146 2.41115ZM20.8364 4.70731H19.8325V0.763321H20.8364V4.70731ZM32.491 4.70731H31.0967L29.2317 1.74711V4.70731H27.2278L26.845 3.82761H24.801L24.4296 4.70731H23.278C22.7999 4.70731 22.1942 4.60597 21.8514 4.27109C21.5056 3.93622 21.3257 3.48263 21.3257 2.76542C21.3257 2.18049 21.4332 1.64577 21.856 1.2232C22.1742 0.908442 22.6723 0.763321 23.3504 0.763321H24.3029V1.60841H23.3703C23.0112 1.60841 22.8084 1.65959 22.6132 1.84203C22.4455 2.00812 22.3304 2.32202 22.3304 2.73543C22.3304 3.15795 22.418 3.46265 22.6008 3.66165C22.7523 3.81773 23.0276 3.86505 23.2865 3.86505H23.7285L25.1152 0.763456H26.5895L28.2555 4.49389V0.7635H29.7536L31.4832 3.51029V0.7635H32.491V4.70731ZM26.5101 3.00915L25.8292 1.43684L25.1521 3.00915H26.5101ZM34.9983 11.0052C34.7593 11.34 34.2936 11.5098 33.6631 11.5098H31.7629V10.6638H33.6554C33.8431 10.6638 33.9744 10.6402 34.0535 10.5662C34.1283 10.5 34.1705 10.4066 34.1699 10.3089C34.1699 10.1939 34.1221 10.1027 34.0497 10.048C33.9783 9.98774 33.8744 9.96044 33.703 9.96044C32.7792 9.93036 31.6265 9.98774 31.6265 8.7394C31.6265 8.16726 32.0056 7.56496 33.0382 7.56496H34.9981V6.78013H33.177C32.6276 6.78013 32.2283 6.9063 31.9456 7.10225V6.78009H29.2522C28.8214 6.78009 28.3158 6.88242 28.0767 7.10225V6.78009H23.2669V7.10225C22.8842 6.83769 22.2383 6.78009 21.9401 6.78009H18.7676V7.10225C18.4647 6.82126 17.7914 6.78009 17.3808 6.78009H13.8301L13.0177 7.62261L12.2566 6.78009H6.95246V12.2845H12.1565L12.9937 11.4286L13.7824 12.2845L16.9903 12.2873V10.9924H17.3055C17.7311 10.9987 18.2332 10.9822 18.676 10.7988V12.2843H21.322V10.8497H21.4496C21.6125 10.8497 21.6285 10.8561 21.6285 11.012V12.2842H29.6663C30.1765 12.2842 30.71 12.1591 31.0054 11.9319V12.2842H33.5549C34.0854 12.2842 34.6035 12.2129 34.9978 12.0305L34.9979 11.005L34.9983 11.0052ZM19.061 8.88784C19.061 9.9837 18.2077 10.21 17.3476 10.21H16.1199V11.5332H14.2075L12.9959 10.2272L11.7368 11.5332H7.83926V7.58817H11.7966L13.0072 8.88128L14.2588 7.58817H17.4029C18.1837 7.58817 19.061 7.7953 19.061 8.88784ZM11.2383 10.7034H8.81914V9.9185H10.9793V9.1136H8.81914V8.39635H11.286L12.3622 9.546L11.2383 10.7034ZM15.1362 11.1551L13.6256 9.54811L15.1362 7.99229V11.1551ZM17.3704 9.40097H16.0988V8.39635H17.3818C17.737 8.39635 17.9836 8.5351 17.9836 8.88003C17.9836 9.22123 17.7484 9.40097 17.3704 9.40097ZM24.0319 7.58817H27.3159V8.40403H25.0118V9.12124H27.2596V9.92614H25.0118V10.711L27.3158 10.7146V11.5332H24.0318L24.0319 7.58817ZM22.7693 9.69983C22.9884 9.77729 23.1674 9.91608 23.2513 10.031C23.3903 10.2237 23.4103 10.4034 23.4143 10.7511V11.5332H22.4264V11.0396C22.4264 10.8022 22.4503 10.4509 22.2674 10.2674C22.1236 10.1261 21.9044 10.0923 21.5455 10.0923H20.494V11.5332H19.5052V7.58822H21.777C22.2751 7.58822 22.6379 7.60932 22.9608 7.77438C23.2713 7.95416 23.4667 8.20036 23.4667 8.65045C23.4666 9.28005 23.0283 9.60137 22.7693 9.69983ZM22.2132 9.20112C22.0816 9.27597 21.9189 9.28243 21.7275 9.28243H20.5321V8.39644H21.7436C21.9189 8.39644 22.0942 8.40003 22.2132 8.4677C22.3407 8.53159 22.417 8.65386 22.417 8.82255C22.417 8.99129 22.3407 9.12725 22.2132 9.20112ZM31.0956 9.45243C31.2873 9.64232 31.3899 9.88218 31.3899 10.2882C31.3899 11.1368 30.8366 11.533 29.8441 11.533H27.9278V10.687H29.8365C30.0232 10.687 30.1555 10.6635 30.2384 10.5894C30.3061 10.5284 30.3546 10.4397 30.3546 10.3321C30.3546 10.2171 30.3021 10.1259 30.2345 10.0712C30.1593 10.011 30.0555 9.9837 29.8842 9.9837C28.964 9.95362 27.8116 10.011 27.8116 8.76275C27.8116 8.19052 28.1868 7.58822 29.2184 7.58822H31.191V8.42787H29.3861C29.2072 8.42787 29.0908 8.43438 28.9919 8.49913C28.8841 8.56298 28.8442 8.65781 28.8442 8.78286C28.8442 8.93166 28.9356 9.03296 29.0595 9.07678C29.1632 9.11136 29.2748 9.12146 29.4423 9.12146L29.972 9.1352C30.5061 9.14759 30.8727 9.23614 31.0956 9.45243ZM35 8.39635H33.2067C33.0277 8.39635 32.9087 8.40282 32.8086 8.46761C32.7048 8.5315 32.6648 8.62629 32.6648 8.75148C32.6648 8.90028 32.7524 9.00148 32.8799 9.04531C32.9837 9.07993 33.0952 9.09003 33.2591 9.09003L33.7924 9.10368C34.3305 9.11643 34.6896 9.20507 34.9086 9.42122C34.9487 9.45131 34.9725 9.48507 34.9999 9.51888V8.39635H35Z" fill="white"/>
</svg>
