<svg width="19" height="19" viewBox="0 0 19 19" fill="none" xmlns="http://www.w3.org/2000/svg">
<path d="M9.5 18.0273L9.1 17.6273C8.3 16.8273 7.6 16.1273 6.8 15.4273C3.1 11.9273 0 8.92735 0 5.32735C0 2.52735 1.9 0.227348 4.3 0.0273483C6.3 -0.172652 8 0.727348 9.5 2.62735C11 0.727348 12.7 -0.172652 14.7 0.0273483C17.2 0.227348 19 2.52735 19 5.32735C19 8.92735 15.8 11.9273 12.2 15.4273C11.4 16.1273 10.7 16.9273 9.9 17.6273L9.5 18.0273ZM4.8 1.02735H4.4C2.5 1.22735 1 3.02735 1 5.32735C1 8.52735 4 11.4273 7.5 14.7273C8.2 15.3273 8.8 16.0273 9.5 16.6273C10.2 15.9273 10.8 15.3273 11.5 14.7273C15 11.4273 18 8.52735 18 5.32735C18 3.02735 16.5 1.22735 14.6 1.02735C12.9 0.827348 11.3 1.72735 9.9 3.72735L9.5 4.32735L9.1 3.72735C7.8 1.92735 6.4 1.02735 4.8 1.02735Z" fill="white"/>
</svg>
