<svg width="24" height="24" viewBox="0 0 24 24" fill="none" xmlns="http://www.w3.org/2000/svg">
<g clip-path="url(#clip0_1_100)">
<path d="M14.9928 10.4891C16.0312 10.4891 16.5505 11.0084 16.5505 12.0468C16.5505 13.0853 16.0312 13.6045 14.9928 13.6045C13.9543 13.6045 13.4351 13.0853 13.4351 12.0468C13.4351 11.0084 13.9543 10.4891 14.9928 10.4891ZM23.6575 0.786011V23.3076H1.1358V0.786011H23.6575ZM12.3966 2.9603C14.8954 2.9603 17.0318 3.85271 18.8058 5.63757C20.5907 7.41161 21.4831 9.54804 21.4831 12.0468C21.4831 14.5565 20.5907 16.6983 18.8058 18.4724C17.0318 20.2464 14.8954 21.1334 12.3966 21.1334C9.88701 21.1334 7.73976 20.2464 5.95492 18.4724C4.18088 16.6983 3.29386 14.5565 3.29386 12.0468C3.29386 9.54804 4.18088 7.41161 5.95492 5.63757C7.73976 3.85271 9.88701 2.9603 12.3966 2.9603ZM18.3191 6.12435C16.6857 4.49094 14.7115 3.67422 12.3966 3.67422C10.0709 3.67422 8.09674 4.49094 6.47415 6.12435C4.82991 7.76859 4.0078 9.74815 4.0078 12.0631C4.0078 14.378 4.82991 16.3467 6.47415 17.9693C8.09674 19.6135 10.0709 20.4356 12.3966 20.4356C14.7115 20.4356 16.6857 19.6135 18.3191 17.9693C19.9525 16.3467 20.7692 14.378 20.7692 12.0631C20.7692 9.74815 19.9525 7.76859 18.3191 6.12435ZM22.7488 1.69467H2.04445V22.399H22.7488V1.69467ZM9.80046 10.4891C10.8389 10.4891 11.3582 11.0084 11.3582 12.0468C11.3582 13.0853 10.8389 13.6045 9.80046 13.6045C8.762 13.6045 8.24277 13.0853 8.24277 12.0468C8.24277 11.0084 8.762 10.4891 9.80046 10.4891Z" fill="#121314"/>
</g>
<defs>
<clipPath id="clip0_1_100">
<rect width="24" height="24" fill="white"/>
</clipPath>
</defs>
</svg>
